<svg xmlns="http://www.w3.org/2000/svg" width="832" height="120" viewBox="0 0 832 120" fill="none"><path fill="#242424" d="M117.52 79.92c0 4.788 7.372 6.992 13.984 6.992 7.98 0 16.34-4.56 16.34-14.06 0-13.832-18.088-15.884-18.088-26.904 0-6.004 4.864-8.816 9.728-8.816 7.98 0 8.208 5.32 7.6 10.564h2.584l3.116-11.856c-2.128-.304-7.98-1.444-12.616-1.444-10.564 0-16.72 6.46-16.72 14.06 0 12.616 17.936 14.972 17.936 26.6 0 6.46-4.94 9.12-9.576 9.12-8.132 0-9.652-5.852-9.652-11.856h-2.584s-2.052 4.712-2.052 7.6zM151.828 86.532l6.156-.532c.228-4.256.836-7.6 1.748-11.704l.912-4.18c1.292-6.004 7.448-14.364 13.832-14.364 2.736 0 3.344 1.748 3.344 3.42 0 4.56-4.484 20.064-4.484 23.94 0 2.052 1.216 3.8 4.028 3.8 4.408 0 8.74-4.484 8.74-4.484l-.304-2.204c-.912.836-3.192 2.432-4.712 2.432-.912 0-1.52-.684-1.52-1.672 0-2.888 4.408-18.012 4.408-23.484 0-3.496-1.748-6.612-6.384-6.612-6.688 0-12.692 6.232-15.428 10.792h-.152s1.292-3.344 2.204-7.524l2.66-11.932c.532-2.356 1.596-7.372 1.976-12.008l-.228-.228c-1.9 1.216-7.448 2.66-11.704 3.268v2.052h1.9c2.356 0 2.964.988 2.964 2.432 0 .912-.38 2.508-.608 3.496L153.5 75.664c-.836 3.8-1.596 7.372-1.672 10.868zM196.185 86.912c7.372 0 13.3-10.032 13.3-10.032h.152s-.988 3.42-.988 6.004c0 2.128.684 4.028 3.648 4.028s6.232-1.824 8.968-4.484l-.304-2.204c-1.292 1.14-3.344 2.432-4.636 2.432-.912 0-1.596-.532-1.596-1.748 0-.684.304-2.28 1.064-5.7l3.42-15.58c1.292-5.928 2.356-7.828 2.356-7.828l-.152-.228c-.76.152-1.444.228-2.204.228-2.888 0-5.472-.912-8.968-.912-13.832 0-21.812 15.124-21.812 25.688 0 7.068 3.496 10.336 7.752 10.336zm2.584-4.56c-2.052 0-3.648-1.444-3.648-6.46 0-11.172 7.448-22.496 14.44-22.496 2.66 0 4.788 1.596 4.788 1.596l-2.052 9.272c-1.748 8.056-7.448 18.088-13.528 18.088zM225.38 86.532l6.156-.532c.228-4.256.912-7.676 1.824-12.008l.836-3.876c.912-4.104 5.852-12.844 9.272-12.844 1.292 0 1.824.684 3.192.684 2.052 0 3.572-1.672 3.572-3.648 0-1.672-1.52-3.42-3.572-3.42-3.496 0-8.056 5.472-10.944 10.792h-.152s2.204-6.992 2.204-11.476l-.228-.228c-3.04 1.748-7.296 2.736-11.552 3.42v2.052h3.116c1.444 0 1.824.988 1.824 2.052 0 2.812-5.548 22.496-5.548 29.032zM247.408 73.992c0 6.916 3.724 12.92 11.096 12.92 7.904 0 12.616-6.08 12.616-6.08l-.152-2.052s-4.332 3.344-8.664 3.344c-6.08 0-8.588-4.408-8.284-10.716l.836-.912c5.092-1.064 19.456-4.94 19.456-13.756 0-4.484-3.876-5.852-7.372-5.852-10.716 0-19.532 12.616-19.532 23.104zm7.144-5.776c1.52-7.296 6.384-14.668 10.868-14.668 2.356 0 2.888 2.128 2.888 4.104 0 7.296-10.868 9.956-13.756 10.564zM292.862 86.228s7.22-.228 11.02-.228h23.712l2.812-12.388h-2.584c-3.8 7.98-4.712 9.424-11.248 9.424h-11.932s.38-1.976.38-4.256V62.516l.76-.76h13.148v5.624h3.572V54.004l-2.812.456-.608 4.332h-14.06v-19.76l.76-.76h9.956c6.08 0 8.588 1.596 8.208 9.424h2.584l2.356-12.692s-2.356.304-5.472.304h-31.312v1.9c5.852 1.14 6.232 1.9 6.232 5.548v36.328c0 2.736-2.052 4.332-5.472 4.712v2.432zM333.823 69.584c0 8.74 5.472 17.328 16.112 17.328 8.816 0 12.312-6.612 12.312-6.612l-.836-1.596s-3.116 3.116-8.816 3.116c-8.968 0-12.54-7.144-12.54-14.44 0-7.372 3.42-13.908 9.5-13.908 5.32 0 5.776 5.928 9.652 5.928 1.824 0 2.888-1.292 2.888-2.736 0-3.952-7.372-5.776-12.008-5.776-10.488 0-16.264 9.5-16.264 18.696zM364.329 86.228l16.72-.456.304-1.9-6.46-.684s.38-1.824.38-4.104V38.728c0-5.852.76-8.664.76-8.664l-.228-.228s-3.496 1.52-12.236 3.42v2.052h3.192c2.204 0 2.28 1.9 2.28 5.168v38.608c0 2.736-1.292 4.56-4.712 4.94v2.204zM383.071 86.228l16.72-.456.304-1.9-6.46-.684s.38-1.824.38-4.104V58.716c0-6.156.836-8.664.836-8.664l-.076-.228s-1.596.988-12.692 3.572v2.052h3.42c2.204 0 2.28 1.9 2.28 5.168v18.468c0 2.736-1.292 4.56-4.712 4.94v2.204zm7.144-43.092c2.204 0 4.104-1.9 4.104-4.104s-1.9-4.104-4.104-4.104-4.104 1.9-4.104 4.104 1.9 4.104 4.104 4.104zM401.869 104.62c5.472-1.824 17.48-3.268 17.48-3.268l.304-1.824h-7.98s.38-2.052.38-4.332v-8.74c1.444.228 3.04.456 5.092.456 13.376 0 19.532-9.804 19.532-19.456 0-8.36-4.56-16.568-13.832-16.568-6.004 0-8.892 3.344-10.944 5.928.304-4.864.76-6.764.76-6.764l-.228-.228s-4.484 2.052-11.932 3.572v2.052h3.04c2.204 0 2.28 1.9 2.28 5.168v34.656c0 3.496-.532 5.244-3.952 7.144v2.204zm15.656-20.596c-2.508 0-5.472-.532-5.472-4.104V58.488c2.356-1.824 5.092-3.192 8.056-3.192 6.764 0 9.956 7.068 9.956 14.364 0 8.664-4.636 14.364-12.54 14.364zM440.263 81.744c0 4.332 7.904 5.168 11.4 5.168 7.22 0 12.16-3.648 12.16-9.956 0-12.008-17.328-10.564-17.328-18.62 0-2.356 1.596-4.864 5.7-4.864 1.596 0 6.84.38 6.84 6.612h2.356l1.52-7.828s-4.94-1.368-9.5-1.368c-8.056 0-12.388 4.028-12.388 9.652 0 11.02 17.404 10.488 17.404 18.62 0 3.192-2.584 5.168-6.308 5.168-3.648 0-8.132-1.9-8.588-8.36h-2.28s-.988 4.256-.988 5.776zM467.223 69.584c0 8.892 5.32 17.328 16.112 17.328 9.044 0 12.996-7.144 12.996-7.144l-.836-1.596s-3.648 3.648-9.88 3.648c-8.512 0-12.008-6.764-12.312-13.68l.76-.912 18.924-2.736c1.52-.228 3.496-.988 3.496-.988-.228-8.36-6.688-12.616-13.224-12.616-9.196 0-16.036 8.36-16.036 18.696zm14.896-15.808c6.688 0 7.296 8.664 7.296 8.664l-15.96 2.052c.684-5.7 3.572-10.716 8.664-10.716zM500.432 61.224c0 16.416 12.92 25.688 26.448 25.688 13.224 0 18.924-8.816 18.924-8.816L544.74 76.5s-5.776 5.396-15.276 5.396c-12.388 0-21.964-9.196-21.964-22.876 0-12.312 7.752-21.736 19.456-21.736 6.156 0 12.844 2.508 12.844 10.412h2.584l2.28-11.552c-3.952-.38-10.716-1.748-16.416-1.748-16.34 0-27.816 11.324-27.816 26.828zM548.089 86.228l17.48-.456.304-1.9-7.22-.684s.38-1.824.38-4.104v-17.86c1.672-1.9 4.18-4.408 6.764-4.408 1.748 0 1.976 1.292 3.724 1.292 1.976 0 3.572-1.444 3.572-3.724 0-2.584-2.28-3.496-4.104-3.496-3.952 0-7.98 4.56-10.26 8.816.228-7.144.912-9.652.912-9.652l-.228-.228s-4.864 2.052-12.312 3.572v2.052h3.42c2.204 0 2.28 1.9 2.28 5.168v18.468c0 2.736-1.292 4.56-4.712 4.94v2.204zM574.012 69.66c0 9.728 5.928 17.252 16.644 17.252 12.16 0 18.012-9.956 18.012-19.38 0-9.348-5.7-16.644-16.796-16.644-12.92 0-17.86 9.88-17.86 18.772zm6.992-1.748c0-7.296 2.964-14.44 9.956-14.44 7.676 0 10.716 8.664 10.716 16.188 0 8.132-3.496 14.668-9.956 14.668-7.6 0-10.716-8.816-10.716-16.416zM612.257 81.744c0 4.332 7.904 5.168 11.4 5.168 7.22 0 12.16-3.648 12.16-9.956 0-12.008-17.328-10.564-17.328-18.62 0-2.356 1.596-4.864 5.7-4.864 1.596 0 6.84.38 6.84 6.612h2.356l1.52-7.828s-4.94-1.368-9.5-1.368c-8.056 0-12.388 4.028-12.388 9.652 0 11.02 17.404 10.488 17.404 18.62 0 3.192-2.584 5.168-6.308 5.168-3.648 0-8.132-1.9-8.588-8.36h-2.28s-.988 4.256-.988 5.776zM639.294 81.744c0 4.332 7.904 5.168 11.4 5.168 7.22 0 12.16-3.648 12.16-9.956 0-12.008-17.328-10.564-17.328-18.62 0-2.356 1.596-4.864 5.7-4.864 1.596 0 6.84.38 6.84 6.612h2.356l1.52-7.828s-4.94-1.368-9.5-1.368c-8.056 0-12.388 4.028-12.388 9.652 0 11.02 17.404 10.488 17.404 18.62 0 3.192-2.584 5.168-6.308 5.168-3.648 0-8.132-1.9-8.588-8.36h-2.28s-.988 4.256-.988 5.776zM678.566 86l2.812.988 9.956-23.332L700.074 86l2.812.988 12.768-29.944c1.444-3.42 2.736-4.028 2.736-4.028l-.38-1.216h-10.184v1.9c2.888.684 5.092 2.432 3.8 5.472l-8.284 19.684c-.38-1.368-.836-3.04-1.292-4.332l-5.852-15.732c-1.368-3.724.076-6.992.076-6.992l-.304-.304s-2.66.304-7.448.304h-3.496v1.9s2.736.532 4.18 4.408l.152.532c.304 1.216-.076 2.508-.456 3.496l-7.068 16.796-1.216-4.104-5.928-16.036c-1.368-3.724.076-6.992.076-6.992l-.304-.304s-2.66.304-7.448.304h-3.496v1.9s2.66.532 4.18 4.408L678.566 86zM719.49 69.66c0 9.728 5.928 17.252 16.644 17.252 12.16 0 18.012-9.956 18.012-19.38 0-9.348-5.7-16.644-16.796-16.644-12.92 0-17.86 9.88-17.86 18.772zm6.992-1.748c0-7.296 2.964-14.44 9.956-14.44 7.676 0 10.716 8.664 10.716 16.188 0 8.132-3.496 14.668-9.956 14.668-7.6 0-10.716-8.816-10.716-16.416zM757.659 86.228l17.48-.456.304-1.9-7.22-.684s.38-1.824.38-4.104v-17.86c1.672-1.9 4.18-4.408 6.764-4.408 1.748 0 1.976 1.292 3.724 1.292 1.976 0 3.572-1.444 3.572-3.724 0-2.584-2.28-3.496-4.104-3.496-3.952 0-7.98 4.56-10.26 8.816.228-7.144.912-9.652.912-9.652l-.228-.228s-4.864 2.052-12.312 3.572v2.052h3.42c2.204 0 2.28 1.9 2.28 5.168v18.468c0 2.736-1.292 4.56-4.712 4.94v2.204zM783.284 70.42c0 8.284 4.94 16.492 14.288 16.492 5.7 0 8.816-3.116 10.868-6.156v1.596c0 1.9-.304 4.028-.304 4.028l.228.228s3.876-.608 12.16-1.444l.228-2.052h-2.128c-2.508 0-4.256 0-4.256-4.332V38.728c0-5.852.76-8.664.76-8.664l-.228-.228s-3.496 1.52-12.236 3.42v2.052h3.192c2.204 0 2.28 1.9 2.28 5.168v10.868s-2.66-.456-5.396-.456c-12.996 0-19.456 9.956-19.456 19.532zm16.948 12.084c-6.84 0-10.336-7.068-10.336-14.364 0-8.816 5.016-14.364 12.768-14.364 2.432 0 5.472.532 5.472 4.028V79.16c-1.216 1.216-4.18 3.344-7.904 3.344z"/><path fill="url(#paint0_linear)" fill-rule="evenodd" d="M9.87 7.495l2.672.813 2.709.812 2.671.85 2.635.775 2.635.812 2.597.775 2.597.813 2.56.775v3.914l-.037 1.994v2.03l-.037 2.032v4.098l-.037 2.105-2.745-.738-2.746-.739-2.82-.738-2.783-.739-2.857-.738-2.858-.776-2.894-.775-2.894-.776.223-2.141.185-2.142.223-2.105.185-2.067.223-2.068.185-2.031.186-2.03.223-1.995zM4.269 65.171l1.67.296 1.706.295 1.67.295 1.67.296 1.67.295 1.67.296 1.632.295 1.67.258 1.632.296 1.633.295 1.596.296 1.632.258 1.596.296 1.595.258 1.596.295 1.595.259-.037 2.954-.037 2.99-.037 3.028-.037 3.065-.037 3.139-.037 3.138-.037 3.176-.038 3.212-1.706-.184-1.744-.222-1.707-.184-1.744-.222-1.744-.222-1.781-.221-1.744-.185-1.781-.221-1.781-.222-1.781-.221-1.819-.222-1.78-.222-1.819-.221-1.855-.222L3.6 91.24l-1.856-.222.334-3.36.334-3.36.297-3.286.334-3.25.297-3.212.297-3.175.334-3.102.297-3.102zm2.115-22.044l3.154.702 3.08.664 3.08.702 3.079.665 3.006.701 3.005.665 2.969.665 2.93.627-.036 2.548v2.585l-.037 2.621-.037 2.622v2.659l-.038 2.695-.037 2.733v2.769l-1.595-.259-1.596-.295-1.595-.258-1.596-.296-1.633-.258-1.595-.296-1.633-.295-1.632-.296-1.67-.258-1.633-.295-1.67-.296-1.67-.295-1.669-.296-1.67-.295-1.707-.295-1.67-.296.26-2.88.297-2.843.26-2.806.26-2.77.26-2.732.296-2.696.223-2.695.26-2.622zm46.16 10.302l2.522.591 2.524.554 2.486.554 2.486.59 2.449.554 2.449.554 2.412.517 2.411.554.297 2.363.334 2.4.297 2.437.334 2.437.334 2.511.334 2.474.334 2.548.334 2.548-2.523-.443-2.598-.443-2.597-.48-2.598-.48-2.634-.444-2.672-.48-2.671-.48-2.709-.48-.186-2.658-.148-2.622-.185-2.585-.149-2.584-.185-2.548-.149-2.51-.185-2.475-.149-2.474zm1.335 20.456l2.709.48 2.671.48 2.672.48 2.634.444 2.598.48 2.597.48 2.598.443 2.523.443.37 2.732.372 2.733.334 2.769.37 2.806.372 2.843.408 2.88.371 2.918.371 2.917-2.708-.333-2.746-.332-2.783-.332-2.783-.333-2.82-.332-2.857-.37-2.857-.332-2.895-.332-.222-3.102-.186-3.027-.185-2.991-.186-2.991-.185-2.917-.186-2.917-.186-2.843-.185-2.844zm21.002 3.73l2.449.443 2.412.443 2.412.406 2.374.443 2.375.406 2.338.444 2.3.406 2.338.406.482 2.621.52 2.622.482 2.659.52 2.695.52 2.696.556 2.769.52 2.77.556 2.806-2.45-.296-2.485-.295-2.486-.296-2.523-.295-2.524-.332-2.56-.296-2.56-.295-2.598-.332-.37-2.917-.372-2.918-.408-2.88-.371-2.843-.371-2.806-.334-2.77-.371-2.732-.371-2.732zm-7.013-52.47l2.078.628 2.04.628 2.041.627 2.041.628 2.041.59 2.004.629 1.966.59 2.004.591.334 1.846.371 1.846.334 1.847.371 1.883.371 1.883.371 1.92.371 1.92.371 1.92-2.078-.554-2.115-.553-2.078-.591-2.152-.554-2.115-.554-2.152-.59-2.152-.592-2.19-.59-.259-1.994-.297-1.957-.26-1.957-.26-1.92-.26-1.92-.259-1.92-.26-1.884-.222-1.846zm-17.663-5.39l2.264.7 2.263.702 2.227.665 2.189.665 2.19.664 2.188.665 2.19.665 2.152.664.222 1.846.26 1.884.26 1.92.26 1.92.26 1.92.26 1.957.296 1.957.26 1.994-2.264-.591-2.3-.628-2.3-.628-2.301-.59-2.338-.628-2.375-.628-2.375-.665-2.374-.627-.149-2.031-.148-2.03-.111-1.995-.149-1.994-.148-1.957-.112-1.957-.148-1.92-.148-1.92z" clip-rule="evenodd"/><path fill="#fff" fill-rule="evenodd" d="M30.946 13.92l2.486.739 2.45.738 2.411.739 2.412.738 2.412.739 2.375.738 2.374.702 2.338.701.148 1.92.149 1.92.111 1.957.149 1.958.148 1.993.111 1.994.149 2.031.148 2.031-2.486-.665-2.523-.664-2.523-.665-2.56-.702-2.56-.664-2.598-.702-2.598-.701-2.634-.702.037-2.105V23.89l.037-2.03v-2.032l.037-1.994V13.92zM8.237 24.075l2.895.775 2.894.775 2.857.776 2.857.738 2.783.739 2.82.738 2.746.739 2.746.738v2.216l-.037 2.252v2.252l-.037 2.29v2.326l-.037 2.326v2.4l-.038 2.364-2.93-.628-2.97-.665-3.005-.664-3.005-.702-3.08-.665-3.08-.701-3.08-.665-3.154-.702.26-2.473.223-2.474.26-2.4.222-2.4.223-2.364.222-2.326.223-2.326.222-2.29zm22.598 6.018l2.634.702 2.598.701 2.597.702 2.56.664 2.56.702 2.524.665 2.523.664 2.486.665.149 2.142.148 2.178.149 2.216.148 2.215.148 2.253.149 2.252.185 2.29.149 2.325-2.672-.59-2.671-.591-2.672-.628-2.746-.59-2.746-.628-2.746-.628-2.782-.59-2.82-.665.037-2.364v-2.4l.037-2.326v-2.326l.037-2.29v-2.252l.037-2.252v-2.216zm20.482 5.465l2.375.628 2.375.664 2.375.628 2.337.628 2.3.59 2.301.628 2.3.628 2.264.59.26 2.105.297 2.105.297 2.142.297 2.141.296 2.216.297 2.178.297 2.216.297 2.252-2.412-.554-2.412-.517-2.449-.553-2.449-.554-2.486-.591-2.486-.554-2.523-.554-2.523-.59-.149-2.327-.185-2.29-.149-2.252-.148-2.252-.148-2.215-.149-2.216-.148-2.178-.149-2.142zm18.627 4.985l2.19.59 2.152.591 2.152.591 2.115.554 2.152.554 2.078.59 2.115.555 2.078.553.371 2.031.408 2.068.408 2.068.408 2.105.409 2.104.408 2.142.408 2.178.408 2.179-2.19-.517-2.188-.48-2.227-.517-2.226-.517-2.264-.517-2.263-.517-2.263-.517-2.301-.517-.297-2.252-.297-2.216-.297-2.178-.296-2.216-.297-2.141-.297-2.142-.297-2.105-.26-2.104zm-39.258 7.976l2.82.664 2.783.59 2.746.629 2.746.627 2.746.591 2.672.628 2.671.59 2.672.591.148 2.474.186 2.474.148 2.511.186 2.548.148 2.585.186 2.584.148 2.622.186 2.659-2.82-.517-2.858-.48-2.894-.517-2.931-.517-2.932-.517-2.968-.517-2.968-.517-3.006-.554v-2.77l.037-2.732.037-2.695v-2.659l.037-2.621.037-2.622v-2.585l.037-2.547zm-.185 21.231l3.006.554 2.968.517 2.968.517 2.932.517 2.931.517 2.894.517 2.857.48 2.82.517.186 2.843.186 2.843.185 2.917.186 2.917.185 2.99.186 2.992.185 3.028.223 3.101-3.043-.369-3.08-.37-3.116-.369-3.117-.406-3.191-.369-3.191-.37-3.192-.405-3.265-.406.037-3.213.037-3.175.037-3.139.037-3.139.038-3.064.037-3.028.037-2.991.037-2.954zm41.781-11.853l2.3.517 2.264.517 2.263.517 2.264.517 2.226.517 2.227.517 2.189.48 2.19.517.444 2.29.446 2.326.445 2.326.445 2.363.483 2.4.445 2.4.482 2.437.483 2.474-2.338-.406-2.3-.406-2.338-.443-2.375-.407-2.375-.443-2.412-.406-2.412-.443-2.449-.443-.334-2.548-.334-2.548-.333-2.474-.334-2.51-.334-2.437-.297-2.437-.334-2.4-.297-2.364z" clip-rule="evenodd"/><path fill="#000" fill-rule="evenodd" d="M9.87 7.495l74.175 22.561 13.952 72.704L1.744 91.166l8.127-83.67zm1.262 1.883l19.37 5.908-.112 14.438-20.705-5.502 1.447-14.844zM31.95 15.73l-.112 14.364 18.59 4.948-.965-13.994-17.514-5.318zm-.112 15.841l-.148 16.616 19.963 4.468-1.114-16.1-18.7-4.984zm-22.3-5.908l20.853 5.539-.148 16.653-22.375-4.985 1.67-17.207zm20.705 23.669L7.718 44.309l-1.93 20.198 24.268 4.246.186-19.422zm1.447.332l20.037 4.505 1.224 18.647-21.447-3.804.186-19.348zm-.223 20.825l21.596 3.803 1.373 21.749-23.229-2.77.26-22.782zm-1.447-.258L5.64 65.947 3.303 89.874l26.456 3.212.26-22.856zm24.527 4.32l19.22 3.397 2.71 20.752-20.557-2.474-1.373-21.675zm20.705 3.693l17.18 3.064 3.785 19.792-18.256-2.216-2.71-20.64zm-2.56-19.349l16.14 3.693 3.303 17.206-17.106-3.064-2.337-17.835zm-1.522-.332L53.21 54.5l1.225 18.573 19.109 3.397-2.375-17.908zM52.023 36.96l16.846 4.542 2.115 15.545-17.848-4.062-1.113-16.025zm18.367 4.948l15.25 4.098 2.895 15.029-16.067-3.656L70.39 41.91zm-2.04-15.102L82.782 31.2l2.56 13.219-15.176-4.062-1.818-13.551zM50.946 21.49l15.88 4.837 1.856 13.625-16.772-4.505-.964-13.957z" clip-rule="evenodd"/><path fill="#000" d="M85.492 28.838L100 104.496 0 92.421l8.46-87.03 77.032 23.447zm-2.82 2.474L11.28 9.6 3.488 89.615l92.542 11.188-13.358-69.491z"/><defs><linearGradient id="paint0_linear" x1="11.035" x2="96.192" y1="9.395" y2="100.801" gradientUnits="userSpaceOnUse"><stop stop-color="gray"/><stop offset="1" stop-color="#444"/></linearGradient></defs></svg>